# xmcd
#
# Track frame offsets:
#	150
#	17930
#	35444
#	50025
#	68384
#	83940
#	98948
#	117043
#	130142
#	146176
#	162471
#	180348
#	194084
#	210502
#	226029
#	243166
#	256437
#	272602
#
# Disc length: 3792 seconds
#
# Revision: 0
# Processed by: cddbd v1.5.2PL0 Copyright (c) Steve Scherf et al.
# Submitted via: EasyCDDAExtractor 5.0.5.1
#
DISCID=fa0ece12
DTITLE=Various Artist -  HOTT COUNTRY VOL 116
DYEAR=1900
DGENRE=Country
TTITLE0=Reba McEntire - YOU'RE GONNA BE (ALWAYS LOVED BY ME)
TTITLE1=Shania Twain - SHOES (COUNTRY VERSION)
TTITLE2=George Strait - SHE LET HERSELF GO
TTITLE3=Johnny Reid - MISSING AN ANGEL
TTITLE4=Van Zant - Nobody Gonna Tell Me What To Do
TTITLE5=Cruzeros - LOAD ME UP
TTITLE6=Sugarland - JUST MIGHT (MAKE ME BELIEVE)
TTITLE7=Toby Keith - BIG BLUE NOTE
TTITLE8=Deric Ruttan - SHINE
TTITLE9=Dwight Yoakam - BLAME THE VAIN
TTITLE10=Kenny Chesney - Who Youd Be Today
TTITLE11=Miranda Lambert - Kerosene
TTITLE12=Emerson Drive - Still Got Yesterday
TTITLE13=Big and Rich - Comin To Your City
TTITLE14=Duane Steele - SAD COUNTRY SONG
TTITLE15=Corb Lund - THE TRUCK GOT STUCK
TTITLE16=Brad Paisley - When I Get Where Im Going (Single Edit)
TTITLE17=Blake Shelton - NOBODY BUT ME
EXTD=
EXTT0=
EXTT1=
EXTT2=
EXTT3=
EXTT4=
EXTT5=
EXTT6=
EXTT7=
EXTT8=
EXTT9=
EXTT10=
EXTT11=
EXTT12=
EXTT13=
EXTT14=
EXTT15=
EXTT16=
EXTT17=
PLAYORDER=
